<?xml version="1.0" encoding="UTF-8" standalone="no"?>
<!DOCTYPE svg PUBLIC "-//W3C//DTD SVG 1.1//EN" "http://www.w3.org/Graphics/SVG/1.1/DTD/svg11.dtd">
<svg width="100%" height="100%" viewBox="0 0 24 24" version="1.1" xmlns="http://www.w3.org/2000/svg" xmlns:xlink="http://www.w3.org/1999/xlink" xml:space="preserve" xmlns:serif="http://www.serif.com/" style="fill-rule:evenodd;clip-rule:evenodd;">
    <path d="M11,5.505C11,3.547 10.362,3.007 8.5,3.007C5.968,3.007 4.046,2.757 2.603,5.255C2,6.299 2,7.699 2,10.501L2,13.499C2,16.3 2,17.701 2.603,18.745C4.046,21.243 5.968,20.993 8.5,20.993C10.362,20.993 11,20.453 11,18.495L11,5.505Z" style="fill:none;fill-rule:nonzero;stroke:rgb(20,27,52);stroke-width:1.5px;"/>
    <g transform="matrix(1,0,0,1,0,-0.018037)">
        <path d="M5,8L8,8" style="fill:none;stroke:rgb(20,27,52);stroke-width:1.5px;stroke-linecap:round;stroke-linejoin:round;stroke-miterlimit:1.5;"/>
    </g>
    <g transform="matrix(1,0,0,1,11,-0.018037)">
        <path d="M5,8L8,8" style="fill:none;stroke:rgb(20,27,52);stroke-width:1.5px;stroke-linecap:round;stroke-linejoin:round;stroke-miterlimit:1.5;"/>
    </g>
    <g transform="matrix(1,0,0,1,0,3.99936)">
        <path d="M5,8L8,8" style="fill:none;stroke:rgb(20,27,52);stroke-width:1.5px;stroke-linecap:round;stroke-linejoin:round;stroke-miterlimit:1.5;"/>
    </g>
    <g transform="matrix(1,0,0,1,11,3.99936)">
        <path d="M5,8L8,8" style="fill:none;stroke:rgb(20,27,52);stroke-width:1.5px;stroke-linecap:round;stroke-linejoin:round;stroke-miterlimit:1.5;"/>
    </g>
    <g transform="matrix(0.5,0,0,0.5,2.5,12.018085)">
        <path d="M5,8L8,8" style="fill:none;stroke:rgb(20,27,52);stroke-width:3px;stroke-linecap:round;stroke-linejoin:round;stroke-miterlimit:1.5;"/>
    </g>
    <g transform="matrix(0.5,0,0,0.5,13.5,12.018085)">
        <path d="M5,8L8,8" style="fill:none;stroke:rgb(20,27,52);stroke-width:3px;stroke-linecap:round;stroke-linejoin:round;stroke-miterlimit:1.5;"/>
    </g>
    <g transform="matrix(-1,-0,0,-1,24,24.000048)">
        <path d="M11,5.505C11,3.547 10.362,3.007 8.5,3.007C5.968,3.007 4.046,2.757 2.603,5.255C2,6.299 2,7.699 2,10.501L2,13.499C2,16.3 2,17.701 2.603,18.745C4.046,21.243 5.968,20.993 8.5,20.993C10.362,20.993 11,20.453 11,18.495L11,5.505Z" style="fill:none;fill-rule:nonzero;stroke:rgb(20,27,52);stroke-width:1.5px;"/>
    </g>
</svg>
