<?xml version="1.0" encoding="UTF-8" standalone="no"?><!DOCTYPE svg PUBLIC "-//W3C//DTD SVG 1.1//EN" "http://www.w3.org/Graphics/SVG/1.1/DTD/svg11.dtd"><svg width="100%" height="100%" viewBox="0 0 246 246" version="1.1" xmlns="http://www.w3.org/2000/svg" xmlns:xlink="http://www.w3.org/1999/xlink" xml:space="preserve" xmlns:serif="http://www.serif.com/" style="fill-rule:evenodd;clip-rule:evenodd;stroke-linejoin:round;stroke-miterlimit:1.5;"><rect x="0" y="0" width="245.76" height="245.76" style="fill:url(#_Linear1);"/><g><rect x="19.2" y="19.2" width="207.36" height="207.36" style="fill:none;stroke:#fff;stroke-width:1.5px;"/><rect x="19.2" y="19.2" width="207.36" height="61.92" style="fill:none;stroke:#fff;stroke-width:1.5px;"/><rect x="19.2" y="39.84" width="207.36" height="20.64" style="fill:none;stroke:#fff;stroke-width:0.5px;"/><rect x="19.2" y="185.28" width="207.36" height="20.64" style="fill:none;stroke:#fff;stroke-width:0.5px;"/><path d="M205.92,226.56l-20.64,0l-0,-207.36l20.64,-0l0,207.36Z" style="fill:none;stroke:#fff;stroke-width:0.5px;"/><path d="M60.48,226.56l-20.64,0l-0,-207.36l20.64,0l0,207.36Z" style="fill:none;stroke:#fff;stroke-width:0.5px;"/><path d="M122.88,226.56l-20.64,0l-0,-207.36l20.64,0l0,207.36Z" style="fill:none;stroke:#fff;stroke-width:0.5px;"/><path d="M143.52,226.56l-20.64,0l-0,-207.36l20.64,0l0,207.36Z" style="fill:none;stroke:#fff;stroke-width:0.5px;"/><rect x="19.2" y="122.88" width="207.36" height="20.64" style="fill:none;stroke:#fff;stroke-width:0.5px;"/><rect x="19.2" y="102.24" width="207.36" height="20.64" style="fill:none;stroke:#fff;stroke-width:0.5px;"/><rect x="19.2" y="164.64" width="207.36" height="61.92" style="fill:none;stroke:#fff;stroke-width:1.5px;"/><path d="M19.2,19.2l61.92,0l-0,207.36l-61.92,0l0,-207.36Z" style="fill:none;stroke:#fff;stroke-width:1.5px;"/><path d="M164.64,19.2l61.92,0l0,207.36l-61.92,0l0,-207.36Z" style="fill:none;stroke:#fff;stroke-width:1.5px;"/><circle cx="122.88" cy="122.88" r="103.68" style="fill:none;stroke:#fff;stroke-width:1.5px;"/></g><g><path d="M111.814,169.787l-14.986,-7.794l37.119,-57.91l14.986,7.794l-37.119,57.91Z" style="fill:#3b275d;"/><path d="M111.814,183.568l-14.986,-7.794l0,-14.693l37.119,-43.217l14.986,-5.769l0,13.563l-37.119,57.91Z" style="fill:#8f88a7;"/><path d="M111.814,169.787l-14.986,-7.794l37.119,-57.91l14.986,7.794l-37.119,57.91Z" style="fill:#3b275d;"/><path d="M91.289,173.129l-11.055,11.992l-37.119,-27.764c-1.98,-1.481 -3.125,-3.678 -3.125,-5.996c-0,-2.318 0.034,-9.507 0,-14.317l40.224,33.316l11.075,-11.674l-0,14.443Z" style="fill:#8f88a7;"/><path d="M91.289,115.251l-0,11.782l-29.312,22.627c-0,-7.044 -0.009,-5.574 -0.01,-12.618l29.322,-21.792Z" style="fill:#8f88a7;"/><path d="M154.471,115.251l0,11.782l29.312,22.627c0,-7.044 0.009,-5.574 0.01,-12.618l-29.322,-21.792Z" style="fill:#8f88a7;"/><path d="M91.289,158.812l-11.055,11.992l-37.119,-27.764c-1.98,-1.481 -3.125,-3.678 -3.125,-5.996c-0,-2.318 1.145,-4.515 3.125,-5.996l37.119,-27.764l11.055,11.992l-29.103,21.768l29.103,21.768Z" style="fill:#3b275d;"/><path d="M154.471,173.129l11.055,11.992l37.119,-27.764c1.98,-1.481 3.125,-3.678 3.125,-5.996c0,-2.318 -0.034,-9.507 0,-14.317l-40.224,33.316l-11.075,-11.674l0,14.443Z" style="fill:#8f88a7;"/><path d="M154.471,158.812l11.055,11.992l37.119,-27.764c1.98,-1.481 3.125,-3.678 3.125,-5.996c0,-2.318 -1.145,-4.515 -3.125,-5.996l-37.119,-27.764l-11.055,11.992l29.103,21.768l-29.103,21.768Z" style="fill:#3b275d;"/></g><g><path d="M111.814,148.583l-14.986,-7.794l37.119,-57.91l14.986,7.794l-37.119,57.91Z" style="fill:#905fe0;"/><path d="M111.814,162.364l-14.986,-7.794l0,-14.693l37.119,-43.217l14.986,-5.769l0,13.563l-37.119,57.91Z" style="fill:#8875ca;"/><path d="M111.814,148.583l-14.986,-7.794l37.119,-57.91l14.986,7.794l-37.119,57.91Z" style="fill:#5c31a7;"/><path d="M91.289,151.925l-11.055,11.992l-37.119,-27.764c-1.98,-1.481 -3.125,-3.678 -3.125,-5.996c-0,-2.318 0.034,-9.507 0,-14.317l40.224,33.316l11.075,-11.674l-0,14.443Z" style="fill:#8875ca;"/><path d="M91.289,94.047l-0,11.782l-29.312,22.627c-0,-7.044 -0.009,-5.574 -0.01,-12.618l29.322,-21.792Z" style="fill:#8875ca;"/><path d="M154.471,94.047l0,11.782l29.312,22.627c0,-7.044 0.009,-5.574 0.01,-12.618l-29.322,-21.792Z" style="fill:#8875ca;"/><path d="M91.289,137.608l-11.055,11.992l-37.119,-27.764c-1.98,-1.481 -3.125,-3.678 -3.125,-5.996c-0,-2.318 1.145,-4.515 3.125,-5.996l37.119,-27.764l11.055,11.992l-29.103,21.768l29.103,21.768Z" style="fill:#5c31a7;"/><path d="M154.471,151.925l11.055,11.992l37.119,-27.764c1.98,-1.481 3.125,-3.678 3.125,-5.996c0,-2.318 -0.034,-9.507 0,-14.317l-40.224,33.316l-11.075,-11.674l0,14.443Z" style="fill:#8875ca;"/><path d="M154.471,137.608l11.055,11.992l37.119,-27.764c1.98,-1.481 3.125,-3.678 3.125,-5.996c0,-2.318 -1.145,-4.515 -3.125,-5.996l-37.119,-27.764l-11.055,11.992l29.103,21.768l-29.103,21.768Z" style="fill:#5c31a7;"/></g><g><path d="M111.814,127.144l-14.986,-7.794l37.119,-57.91l14.986,7.794l-37.119,57.91Z" style="fill:#905fe0;"/><path d="M111.814,140.924l-14.986,-7.794l0,-14.693l37.119,-43.217l14.986,-5.769l0,13.563l-37.119,57.91Z" style="fill:#9883e0;"/><path d="M111.814,127.144l-14.986,-7.794l37.119,-57.91l14.986,7.794l-37.119,57.91Z" style="fill:#905fe0;"/><path d="M91.289,130.485l-11.055,11.992l-37.119,-27.764c-1.98,-1.481 -3.125,-3.678 -3.125,-5.996c-0,-2.318 0.034,-9.507 0,-14.317l40.224,33.316l11.075,-11.674l-0,14.443Z" style="fill:#9883e0;"/><path d="M91.289,72.608l-0,11.782l-29.312,22.627c-0,-7.044 -0.009,-5.574 -0.01,-12.618l29.322,-21.792Z" style="fill:#9883e0;"/><path d="M154.471,72.608l0,11.782l29.312,22.627c0,-7.044 0.009,-5.574 0.01,-12.618l-29.322,-21.792Z" style="fill:#9883e0;"/><path d="M91.289,116.168l-11.055,11.992l-37.119,-27.764c-1.98,-1.481 -3.125,-3.678 -3.125,-5.996c-0,-2.318 1.145,-4.515 3.125,-5.996l37.119,-27.764l11.055,11.992l-29.103,21.768l29.103,21.768Z" style="fill:#905fe0;"/><path d="M154.471,130.485l11.055,11.992l37.119,-27.764c1.98,-1.481 3.125,-3.678 3.125,-5.996c0,-2.318 -0.034,-9.507 0,-14.317l-40.224,33.316l-11.075,-11.674l0,14.443Z" style="fill:#9883e0;"/><path d="M154.471,116.168l11.055,11.992l37.119,-27.764c1.98,-1.481 3.125,-3.678 3.125,-5.996c0,-2.318 -1.145,-4.515 -3.125,-5.996l-37.119,-27.764l-11.055,11.992l29.103,21.768l-29.103,21.768Z" style="fill:#905fe0;"/></g><defs><linearGradient id="_Linear1" x1="0" y1="0" x2="1" y2="0" gradientUnits="userSpaceOnUse" gradientTransform="matrix(245.76,245.76,-245.76,245.76,0,0)"><stop offset="0" style="stop-color:#b9ceff;stop-opacity:1"/><stop offset="1" style="stop-color:#d9b9ff;stop-opacity:1"/></linearGradient></defs></svg>