<?xml version="1.0" encoding="UTF-8" standalone="no"?>
<!DOCTYPE svg PUBLIC "-//W3C//DTD SVG 1.1//EN" "http://www.w3.org/Graphics/SVG/1.1/DTD/svg11.dtd">
<svg width="100%" height="100%" viewBox="0 0 24 24" version="1.1" xmlns="http://www.w3.org/2000/svg" xmlns:xlink="http://www.w3.org/1999/xlink" xml:space="preserve" xmlns:serif="http://www.serif.com/" style="fill-rule:evenodd;clip-rule:evenodd;stroke-linecap:round;">
    <path d="M14,2L10,2C6.721,2 5.081,2 3.919,2.814C3.489,3.115 3.115,3.489 2.814,3.919C2,5.081 2,6.721 2,10C2,13.279 2,14.919 2.814,16.081C3.115,16.511 3.489,16.885 3.919,17.186C5.081,18 6.721,18 10,18L14,18C17.279,18 18.919,18 20.081,17.186C20.511,16.885 20.885,16.511 21.186,16.081C22,14.919 22,13.279 22,10C22,6.721 22,5.081 21.186,3.919C20.885,3.489 20.511,3.115 20.081,2.814C18.919,2 17.279,2 14,2Z" style="fill:none;fill-rule:nonzero;stroke:rgb(20,27,52);stroke-width:1.5px;"/>
    <g transform="matrix(1,0,0,1,3.682077,0)">
        <path d="M9,10C9,10 11.21,13 12,13C12.791,13 15,10 15,10M12,12.5L12,7" style="fill:none;fill-rule:nonzero;stroke:rgb(20,27,52);stroke-width:1.5px;stroke-linejoin:round;"/>
    </g>
    <g transform="matrix(1,0,0,1,-7.670477,-2.478841)">
        <path d="M12.988,15.486L12.988,9.476C13.324,9.369 15.498,11.477 15.498,11.477C15.498,11.477 17.671,9.369 18.006,9.476L18.006,15.486" style="fill:none;fill-rule:nonzero;stroke:rgb(20,27,52);stroke-width:1.5px;stroke-linejoin:round;"/>
    </g>
    <path d="M14.656,22L14.237,21.581C13.293,20.637 13.059,19.194 13.656,18" style="fill:none;fill-rule:nonzero;stroke:rgb(20,27,52);stroke-width:1.5px;"/>
    <path d="M9.001,22L9.419,21.581C10.364,20.637 10.598,19.194 10.001,18" style="fill:none;fill-rule:nonzero;stroke:rgb(20,27,52);stroke-width:1.5px;"/>
    <path d="M7,22L17,22" style="fill:none;fill-rule:nonzero;stroke:rgb(20,27,52);stroke-width:1.5px;"/>
</svg>
