<?xml version="1.0" encoding="UTF-8" standalone="no"?>
<!DOCTYPE svg PUBLIC "-//W3C//DTD SVG 1.1//EN" "http://www.w3.org/Graphics/SVG/1.1/DTD/svg11.dtd">
<svg width="100%" height="100%" viewBox="0 0 24 24" version="1.1" xmlns="http://www.w3.org/2000/svg" xmlns:xlink="http://www.w3.org/1999/xlink" xml:space="preserve" xmlns:serif="http://www.serif.com/" style="fill-rule:evenodd;clip-rule:evenodd;stroke-linecap:round;stroke-linejoin:round;">
    <path d="M12.666,15.926L18.223,21.371C18.515,21.664 18.662,21.81 18.82,21.888C19.12,22.037 19.473,22.037 19.774,21.888C19.931,21.81 20.078,21.664 20.371,21.371C20.664,21.078 20.81,20.931 20.888,20.774C21.037,20.473 21.037,20.12 20.888,19.82C20.81,19.662 20.664,19.515 20.371,19.223L14.814,13.777L12.666,11.629C12.373,11.336 12.227,11.19 12.069,11.112C11.768,10.963 11.415,10.963 11.115,11.112C10.957,11.19 10.81,11.336 10.518,11.629C10.225,11.922 10.078,12.069 10,12.226C9.851,12.527 9.851,12.88 10,13.18C10.078,13.338 10.225,13.485 10.518,13.777L12.666,15.926ZM13.814,12.777L11.666,14.926" style="fill:none;fill-rule:nonzero;stroke:rgb(20,27,52);stroke-width:1.5px;"/>
    <g transform="matrix(1,0,0,1,-11,12)">
        <path d="M17,2L17.295,2.797C17.681,3.841 17.875,4.363 18.256,4.744C18.637,5.125 19.159,5.319 20.203,5.705L21,6L20.203,6.295C19.159,6.681 18.637,6.875 18.256,7.256C17.875,7.637 17.681,8.159 17.295,9.203L17,10L16.705,9.203C16.319,8.159 16.125,7.637 15.744,7.256C15.363,6.875 14.841,6.681 13.797,6.295L13,6L13.797,5.705C14.841,5.319 15.363,5.125 15.744,4.744C16.125,4.363 16.319,3.841 16.705,2.797L17,2Z" style="fill:none;fill-rule:nonzero;stroke:rgb(20,27,52);stroke-width:1.5px;stroke-linecap:butt;"/>
    </g>
    <g transform="matrix(0.833333,0,0,0.833333,14.999975,5.666667)">
        <path d="M6,4L6.221,4.597C6.511,5.381 6.656,5.773 6.942,6.058C7.227,6.344 7.619,6.489 8.403,6.779L9,7L8.403,7.221C7.619,7.511 7.227,7.656 6.942,7.942C6.656,8.227 6.511,8.619 6.221,9.403L6,10L5.779,9.403C5.489,8.619 5.344,8.227 5.058,7.942C4.773,7.656 4.381,7.511 3.597,7.221L3,7L3.597,6.779C4.381,6.489 4.773,6.344 5.058,6.058C5.344,5.773 5.489,5.381 5.779,4.597L6,4Z" style="fill:none;fill-rule:nonzero;stroke:rgb(20,27,52);stroke-width:1.5px;stroke-linecap:butt;"/>
    </g>
    <g transform="matrix(1,0,0,1,0,-1.157892)">
        <g transform="matrix(7.5,0,0,7.5,14.855,9.25)">
        </g>
        <text x="2px" y="9.25px" style="font-family:'PTSans-Bold', 'PT Sans', sans-serif;font-weight:700;font-size:7.5px;">SQL</text>
    </g>
</svg>
