<?xml version="1.0" encoding="UTF-8" standalone="no"?>
<!DOCTYPE svg PUBLIC "-//W3C//DTD SVG 1.1//EN" "http://www.w3.org/Graphics/SVG/1.1/DTD/svg11.dtd">
<svg width="100%" height="100%" viewBox="0 0 24 24" version="1.1" xmlns="http://www.w3.org/2000/svg" xmlns:xlink="http://www.w3.org/1999/xlink" xml:space="preserve" xmlns:serif="http://www.serif.com/" style="fill-rule:evenodd;clip-rule:evenodd;stroke-linecap:round;stroke-linejoin:round;">
    <path d="M19,9L19,7.818C19,6.125 19,5.278 18.748,4.602C18.342,3.515 17.485,2.658 16.398,2.252C15.722,2 14.875,2 13.182,2C10.219,2 8.737,2 7.554,2.441C5.651,3.151 4.151,4.651 3.441,6.554C3,7.737 3,9.219 3,12.182L3,14.727C3,17.797 3,19.331 3.798,20.397C4.026,20.703 4.298,20.974 4.603,21.202C5.669,22 7.203,22 10.273,22L14.5,22" style="fill:none;fill-rule:nonzero;stroke:rgb(20,27,52);stroke-width:1.5px;"/>
    <path d="M3,12C3,10.159 4.492,8.667 6.333,8.667L7.444,8.667C7.961,8.667 8.219,8.667 8.431,8.61C9.007,8.456 9.456,8.007 9.61,7.431C9.667,7.219 9.667,6.961 9.667,6.444L9.667,5.333C9.667,3.492 11.159,2 13,2" style="fill:none;fill-rule:nonzero;stroke:rgb(20,27,52);stroke-width:1.5px;"/>
    <g transform="matrix(1,0,0,1,-1,3)">
        <path d="M16.2,13.83C16.2,14.157 16.145,14.46 16.035,14.74C15.925,15.02 15.77,15.263 15.57,15.47C15.37,15.677 15.128,15.84 14.845,15.96C14.562,16.08 14.25,16.14 13.91,16.14C13.563,16.14 13.245,16.085 12.955,15.975C12.665,15.865 12.413,15.7 12.2,15.48C11.987,15.26 11.82,14.983 11.7,14.65C11.58,14.317 11.52,13.93 11.52,13.49C11.52,12.83 11.615,12.233 11.805,11.7C11.995,11.167 12.252,10.702 12.575,10.305C12.898,9.908 13.275,9.588 13.705,9.345C14.135,9.102 14.59,8.94 15.07,8.86L15.36,9.89C15.027,9.943 14.72,10.047 14.44,10.2C14.16,10.353 13.912,10.537 13.695,10.75C13.478,10.963 13.295,11.202 13.145,11.465C12.995,11.728 12.89,12 12.83,12.28C12.963,12.113 13.137,11.972 13.35,11.855C13.563,11.738 13.83,11.68 14.15,11.68C14.45,11.68 14.727,11.727 14.98,11.82C15.233,11.913 15.45,12.052 15.63,12.235C15.81,12.418 15.95,12.643 16.05,12.91C16.15,13.177 16.2,13.483 16.2,13.83ZM14.94,13.9C14.94,13.153 14.573,12.78 13.84,12.78C13.573,12.78 13.348,12.84 13.165,12.96C12.982,13.08 12.853,13.22 12.78,13.38C12.767,13.453 12.76,13.517 12.76,13.57L12.76,13.73C12.76,13.89 12.783,14.048 12.83,14.205C12.877,14.362 12.945,14.502 13.035,14.625C13.125,14.748 13.24,14.848 13.38,14.925C13.52,15.002 13.687,15.04 13.88,15.04C14.193,15.04 14.448,14.933 14.645,14.72C14.842,14.507 14.94,14.233 14.94,13.9Z" style="fill-rule:nonzero;"/>
        <path d="M22.2,14.05L21.1,14.05L21.1,16L19.89,16L19.89,14.05L16.86,14.05L16.86,13.31L20.03,8.95L21.1,8.95L21.1,13.01L22.2,13.01L22.2,14.05ZM19.89,11.48L19.98,10.64L19.94,10.64L19.6,11.36L18.56,12.71L18.06,13.09L18.7,13.01L19.89,13.01L19.89,11.48Z" style="fill-rule:nonzero;"/>
    </g>
</svg>
