<svg width="100%" height="100%" viewBox="0 0 512 512">
    <g transform="matrix(0.9082,0,0,0.9082,23.500688,23.506297)">
        <path d="M97.61,97.8C10.13,185.27 10.12,327.09 97.59,414.57L97.61,414.59C103.75,420.95 103.57,431.07 97.22,437.21C91.02,443.2 81.19,443.2 74.99,437.21C-24.98,337.24 -24.99,175.16 74.98,75.18L74.99,75.17C81.13,68.81 91.26,68.64 97.61,74.78C103.97,80.92 104.14,91.05 98,97.4L97.61,97.8ZM414.39,75.17C420.64,68.92 430.77,68.92 437.01,75.17C536.98,175.14 536.99,337.22 437.02,437.2L437.01,437.21C430.65,443.35 420.53,443.17 414.39,436.82C408.4,430.62 408.4,420.79 414.39,414.59C501.87,327.12 501.88,185.3 414.41,97.82L414.39,97.8C408.15,91.55 408.15,81.42 414.39,75.17M192,352.19C192,369.86 177.67,384.19 160,384.19C142.33,384.19 128,369.86 128,352.19C128,334.52 142.33,320.19 160,320.19C177.67,320.19 192,334.51 192,352.19M352,144.19C352,135.35 344.84,128.19 336,128.19C327.16,128.19 320,135.35 320,144.19L320,211.93L264.23,178.43C256.65,173.89 246.82,176.35 242.28,183.93C237.74,191.51 240.2,201.34 247.78,205.88L304.9,240.18L247.78,274.45C240.2,278.99 237.73,288.82 242.28,296.4C246.82,303.98 256.65,306.45 264.23,301.9L320,268.45L320,336.19C320,345.03 327.16,352.19 336,352.19C344.84,352.19 352,345.03 352,336.19L352,268.45L407.77,301.92C415.35,306.46 425.18,304 429.72,296.42C434.26,288.84 431.8,279.01 424.22,274.47L367.1,240.2L424.22,205.93C431.8,201.39 434.27,191.56 429.72,183.98C425.17,176.4 415.35,173.93 407.77,178.48L352,211.94L352,144.19Z" stroke="#141B34" stroke-width="1.5" stroke-linecap="round" stroke-linejoin="round"/>
    </g>
</svg>
